<?xml version="1.0" encoding="UTF-8" standalone="no"?>
<!-- Created with Inkscape (http://www.inkscape.org/) -->

<svg
   width="180"
   height="180"
   viewBox="0 0 180 180"
   version="1.1"
   id="svg1"
   xml:space="preserve"
   inkscape:version="1.3.2 (091e20ef0f, 2023-11-25, custom)"
   sodipodi:docname="archlinux_logo.svg"
   xmlns:inkscape="http://www.inkscape.org/namespaces/inkscape"
   xmlns:sodipodi="http://sodipodi.sourceforge.net/DTD/sodipodi-0.dtd"
   xmlns="http://www.w3.org/2000/svg"
   xmlns:svg="http://www.w3.org/2000/svg"><sodipodi:namedview
     id="namedview1"
     pagecolor="#505050"
     bordercolor="#eeeeee"
     borderopacity="1"
     inkscape:showpageshadow="0"
     inkscape:pageopacity="0"
     inkscape:pagecheckerboard="0"
     inkscape:deskcolor="#505050"
     inkscape:document-units="px"
     inkscape:zoom="3.4648232"
     inkscape:cx="26.841196"
     inkscape:cy="119.48662"
     inkscape:window-width="1900"
     inkscape:window-height="1032"
     inkscape:window-x="0"
     inkscape:window-y="0"
     inkscape:window-maximized="1"
     inkscape:current-layer="g3" /><defs
     id="defs1" /><g
     inkscape:label="Layer 1"
     inkscape:groupmode="layer"
     id="layer1"><g
       id="g3"
       transform="translate(0.30612,8.4581035)"><path
         style="display:inline;fill:#1793d1;fill-opacity:1;stroke:none;stroke-opacity:1"
         d="m 156.93878,22.44898 c -17.30627,30.24592 -34.08871,61.287716 -48.92114,93.27757 0.90134,0.10872 -18.262827,-11.34182 -19.912231,-11.22052 -1.048753,0.0771 17.833491,14.82523 17.732921,15.95872 -5.75698,12.61933 -11.201402,25.3865 -16.246493,38.31075 C 74.28351,122.54831 57.10842,87.81852 38.96952,54.00542 37.95191,54.55866 58.2625,62.18135 56.79992,60.68802 55.56695,59.42913 34.90757,47.89283 34.55298,45.82444 30.55769,38.46932 26.51988,31.15571 22.44898,23.87755 40.49173,36.08242 57.94417,43.1116 74.88302,45.61139 c -3.43461,23.73156 5.664412,33.63254 13.893546,33.79256 9.639825,0.18746 17.952134,-12.16436 14.502614,-33.80056 18.4461,-2.74743 36.29612,-10.77323 53.6596,-23.15434 z"
         id="path1"
         sodipodi:nodetypes="ccscccscccsccc" /><path
         sodipodi:type="star"
         style="fill:#ff0000;fill-opacity:1;stroke:none;stroke-opacity:1"
         id="path2"
         inkscape:flatsided="false"
         sodipodi:sides="5"
         sodipodi:cx="71.28791"
         sodipodi:cy="69.556221"
         sodipodi:r1="17.915066"
         sodipodi:r2="8.9575329"
         sodipodi:arg1="-1.5707963"
         sodipodi:arg2="-0.9424778"
         inkscape:rounded="0"
         inkscape:randomized="0"
         d="m 71.287911,51.641155 5.265105,10.66827 11.773135,1.710737 -8.519121,8.304089 2.011092,11.725563 -10.530212,-5.53606 -10.530211,5.536059 2.011091,-11.725562 -8.519119,-8.30409 11.773134,-1.710736 z"
         inkscape:transform-center-y="-2.2134902"
         transform="matrix(1.2938812,0,0,1.2938812,-2.9552822,-62.509227)" /></g></g></svg>
