<svg xmlns="http://www.w3.org/2000/svg" xmlns:svg="http://www.w3.org/2000/svg" id="svg1" width="180" height="180" version="1.1" viewBox="0 0 180 180" xml:space="preserve"><g id="layer1"><g id="g3" transform="translate(0.30612,8.4581035)"><g id="g4"><path style="display:inline;fill:#1793d1;fill-opacity:1;stroke:none;stroke-opacity:1" id="path1" d="m 156.93878,22.44898 c -17.30627,30.24592 -34.08871,61.287716 -48.92114,93.27757 0.90134,0.10872 -18.262827,-11.34182 -19.912231,-11.22052 -1.048753,0.0771 17.833491,14.82523 17.732921,15.95872 -5.75698,12.61933 -11.201402,25.3865 -16.246493,38.31075 C 74.28351,122.54831 57.10842,87.81852 38.96952,54.00542 37.95191,54.55866 58.2625,62.18135 56.79992,60.68802 55.56695,59.42913 34.90757,47.89283 34.55298,45.82444 30.55769,38.46932 26.51988,31.15571 22.44898,23.87755 40.49173,36.08242 57.94417,43.1116 74.88302,45.61139 c -3.43461,23.73156 5.664412,33.63254 13.893546,33.79256 9.639825,0.18746 17.952134,-12.16436 14.502614,-33.80056 18.4461,-2.74743 36.29612,-10.77323 53.6596,-23.15434 z"/><circle style="fill:red" id="path3" cx="89.694" cy="23.867" r="21.646"/></g></g></g></svg>